<?xml version="1.0" standalone="no"?>
<!DOCTYPE svg PUBLIC "-//W3C//DTD SVG 20010904//EN"
 "http://www.w3.org/TR/2001/REC-SVG-20010904/DTD/svg10.dtd">
<svg version="1.0" xmlns="http://www.w3.org/2000/svg"
 width="300.000000pt" height="65.000000pt" viewBox="0 0 300.000000 65.000000"
 preserveAspectRatio="xMidYMid meet">
<metadata>
Created by potrace 1.10, written by Peter Selinger 2001-2011
</metadata>
<g transform="translate(0.000000,65.000000) scale(0.100000,-0.100000)"
fill="#000000" stroke="none">
<path d="M157 482 c-70 -70 -127 -132 -127 -137 0 -6 58 -68 130 -140 l129
-129 23 19 c13 11 25 21 28 23 2 1 -46 53 -108 115 l-112 112 110 110 110 109
-22 23 c-12 13 -24 23 -27 23 -4 0 -64 -57 -134 -128z"/>
<path d="M2115 370 c-236 -237 -239 -239 -220 -260 10 -11 23 -20 29 -20 6 0
119 108 251 240 236 237 239 239 220 260 -10 11 -23 20 -29 20 -6 0 -119 -108
-251 -240z"/>
<path d="M2582 588 l-22 -23 112 -113 113 -114 -113 -107 -112 -107 25 -24 26
-24 129 129 c72 71 130 134 130 140 0 10 -250 265 -260 265 -3 0 -16 -10 -28
-22z"/>
<path d="M797 543 c-4 -3 -7 -82 -7 -175 l0 -168 -120 0 -120 0 0 50 c0 58
-15 70 -54 45 -23 -15 -26 -24 -26 -76 0 -46 3 -59 15 -59 9 0 18 -7 21 -15 5
-12 32 -15 155 -15 138 0 152 2 179 22 l30 22 0 158 c0 148 -2 161 -22 188
-21 29 -38 37 -51 23z"/>
<path d="M998 525 c-15 -20 -18 -47 -18 -177 1 -136 3 -156 20 -176 11 -13 27
-22 37 -20 15 3 18 16 21 86 l3 82 110 0 c148 0 149 1 149 103 0 73 -3 84 -24
105 -22 20 -33 22 -152 22 -125 -1 -130 -1 -146 -25z m242 -85 l0 -40 -90 0
-90 0 0 40 0 40 90 0 90 0 0 -40z"/>
<path d="M1448 529 c-16 -17 -18 -41 -18 -188 0 -212 -9 -201 181 -201 117 0
134 2 160 21 51 36 33 44 -122 49 l-144 5 0 130 0 130 144 5 c103 4 146 9 149
17 2 7 -5 16 -15 20 -10 3 -22 12 -26 20 -6 10 -42 13 -150 12 -127 -1 -144
-3 -159 -20z"/>
</g>
</svg>
